<mxfile host="app.diagrams.net" modified="2024-03-18T17:51:15.423Z" agent="Mozilla/5.0 (Windows NT 10.0; Win64; x64) AppleWebKit/537.36 (KHTML, like Gecko) Chrome/122.0.0.0 Safari/537.36 Edg/122.0.0.0" etag="2Alsf45U_c2UGOQMg32J" version="22.1.19" type="github">
  <diagram name="Page-1" id="1HI9dfpJcafJoC80jGmo">
    <mxGraphModel dx="2034" dy="567" grid="1" gridSize="10" guides="1" tooltips="1" connect="1" arrows="1" fold="1" page="1" pageScale="1" pageWidth="850" pageHeight="1100" math="0" shadow="0">
      <root>
        <mxCell id="0" />
        <mxCell id="1" parent="0" />
        <mxCell id="b9gszXVMno1NXKM0P90B-1" value="&lt;b&gt;&lt;font style=&quot;font-size: 18px;&quot;&gt;API Gateway - GraphQL&lt;/font&gt;&lt;/b&gt;" style="rounded=1;whiteSpace=wrap;html=1;" parent="1" vertex="1">
          <mxGeometry x="-20" y="170" width="1050" height="60" as="geometry" />
        </mxCell>
        <mxCell id="b9gszXVMno1NXKM0P90B-2" value="&lt;b&gt;&lt;font style=&quot;font-size: 18px;&quot;&gt;Web Apps&amp;nbsp;&lt;/font&gt;&lt;/b&gt;" style="rounded=1;whiteSpace=wrap;html=1;" parent="1" vertex="1">
          <mxGeometry x="140" y="70" width="120" height="50" as="geometry" />
        </mxCell>
        <mxCell id="b9gszXVMno1NXKM0P90B-3" value="&lt;font style=&quot;font-size: 18px;&quot;&gt;&lt;b&gt;Dealers/Third party Partners/Customers&lt;/b&gt;&lt;/font&gt;" style="rounded=1;whiteSpace=wrap;html=1;" parent="1" vertex="1">
          <mxGeometry x="424" y="70" width="180" height="50" as="geometry" />
        </mxCell>
        <mxCell id="b9gszXVMno1NXKM0P90B-4" value="&lt;b&gt;&lt;font style=&quot;font-size: 18px;&quot;&gt;Mobile Apps**&lt;/font&gt;&lt;/b&gt;" style="rounded=1;whiteSpace=wrap;html=1;" parent="1" vertex="1">
          <mxGeometry x="750" y="70" width="120" height="50" as="geometry" />
        </mxCell>
        <mxCell id="b9gszXVMno1NXKM0P90B-5" value="" style="edgeStyle=orthogonalEdgeStyle;rounded=0;orthogonalLoop=1;jettySize=auto;html=1;" parent="1" source="b9gszXVMno1NXKM0P90B-6" target="b9gszXVMno1NXKM0P90B-16" edge="1">
          <mxGeometry relative="1" as="geometry" />
        </mxCell>
        <mxCell id="b9gszXVMno1NXKM0P90B-6" value="E1: Customer Experience" style="swimlane;whiteSpace=wrap;html=1;" parent="1" vertex="1">
          <mxGeometry x="7" y="260" width="183" height="180" as="geometry" />
        </mxCell>
        <mxCell id="b9gszXVMno1NXKM0P90B-7" value="&lt;b&gt;Telematics Analytics&lt;/b&gt;" style="shape=hexagon;perimeter=hexagonPerimeter2;whiteSpace=wrap;html=1;fixedSize=1;" parent="b9gszXVMno1NXKM0P90B-6" vertex="1">
          <mxGeometry x="2" y="30" width="78" height="60" as="geometry" />
        </mxCell>
        <mxCell id="b9gszXVMno1NXKM0P90B-8" value="&lt;b&gt;Safety Alerts&lt;/b&gt;" style="shape=hexagon;perimeter=hexagonPerimeter2;whiteSpace=wrap;html=1;fixedSize=1;" parent="b9gszXVMno1NXKM0P90B-6" vertex="1">
          <mxGeometry x="118" y="48" width="62" height="60" as="geometry" />
        </mxCell>
        <mxCell id="b9gszXVMno1NXKM0P90B-9" value="" style="endArrow=classic;startArrow=classic;html=1;rounded=0;exitX=1;exitY=0.5;exitDx=0;exitDy=0;entryX=0;entryY=0.5;entryDx=0;entryDy=0;" parent="b9gszXVMno1NXKM0P90B-6" source="b9gszXVMno1NXKM0P90B-7" target="b9gszXVMno1NXKM0P90B-8" edge="1">
          <mxGeometry width="50" height="50" relative="1" as="geometry">
            <mxPoint x="70" y="50" as="sourcePoint" />
            <mxPoint x="80" y="90" as="targetPoint" />
          </mxGeometry>
        </mxCell>
        <mxCell id="b9gszXVMno1NXKM0P90B-10" value="Service mesh" style="text;html=1;strokeColor=none;fillColor=none;align=center;verticalAlign=middle;whiteSpace=wrap;rounded=0;" parent="b9gszXVMno1NXKM0P90B-6" vertex="1">
          <mxGeometry x="80" y="45" width="60" height="30" as="geometry" />
        </mxCell>
        <mxCell id="gPe0-I8KuVqpto5hZWO--2" value="&lt;b&gt;Fleet Optimization&lt;/b&gt;" style="shape=hexagon;perimeter=hexagonPerimeter2;whiteSpace=wrap;html=1;fixedSize=1;" vertex="1" parent="b9gszXVMno1NXKM0P90B-6">
          <mxGeometry x="12" y="100" width="88" height="60" as="geometry" />
        </mxCell>
        <mxCell id="gPe0-I8KuVqpto5hZWO--3" value="" style="endArrow=classic;startArrow=classic;html=1;rounded=0;exitX=0;exitY=0.5;exitDx=0;exitDy=0;entryX=0.833;entryY=0.145;entryDx=0;entryDy=0;entryPerimeter=0;" edge="1" parent="b9gszXVMno1NXKM0P90B-6" source="b9gszXVMno1NXKM0P90B-10" target="gPe0-I8KuVqpto5hZWO--2">
          <mxGeometry width="50" height="50" relative="1" as="geometry">
            <mxPoint x="90" y="70" as="sourcePoint" />
            <mxPoint x="100" y="110" as="targetPoint" />
          </mxGeometry>
        </mxCell>
        <mxCell id="gPe0-I8KuVqpto5hZWO--10" value="" style="endArrow=none;dashed=1;html=1;dashPattern=1 3;strokeWidth=2;rounded=0;entryX=0.136;entryY=0.5;entryDx=0;entryDy=0;exitX=0.849;exitY=0.112;exitDx=0;exitDy=0;exitPerimeter=0;entryPerimeter=0;" edge="1" parent="b9gszXVMno1NXKM0P90B-6" target="b9gszXVMno1NXKM0P90B-28">
          <mxGeometry width="50" height="50" relative="1" as="geometry">
            <mxPoint x="63" y="30" as="sourcePoint" />
            <mxPoint x="205" y="51" as="targetPoint" />
          </mxGeometry>
        </mxCell>
        <mxCell id="gPe0-I8KuVqpto5hZWO--11" value="&lt;b&gt;E1 - MongoDB&lt;/b&gt;" style="shape=cylinder3;whiteSpace=wrap;html=1;boundedLbl=1;backgroundOutline=1;size=15;" vertex="1" parent="b9gszXVMno1NXKM0P90B-6">
          <mxGeometry x="110" y="117" width="68" height="60" as="geometry" />
        </mxCell>
        <mxCell id="b9gszXVMno1NXKM0P90B-11" value="" style="edgeStyle=orthogonalEdgeStyle;rounded=0;orthogonalLoop=1;jettySize=auto;html=1;entryX=0.449;entryY=-0.02;entryDx=0;entryDy=0;entryPerimeter=0;" parent="1" edge="1" target="b9gszXVMno1NXKM0P90B-17">
          <mxGeometry relative="1" as="geometry">
            <mxPoint x="291" y="440" as="sourcePoint" />
            <mxPoint x="290.9" y="484" as="targetPoint" />
          </mxGeometry>
        </mxCell>
        <mxCell id="b9gszXVMno1NXKM0P90B-12" value="E2 - Transport As a Service (TaaS)" style="swimlane;whiteSpace=wrap;html=1;" parent="1" vertex="1">
          <mxGeometry x="217" y="260" width="183" height="180" as="geometry" />
        </mxCell>
        <mxCell id="b9gszXVMno1NXKM0P90B-29" value="&lt;b&gt;Subscription Service&lt;/b&gt;" style="shape=hexagon;perimeter=hexagonPerimeter2;whiteSpace=wrap;html=1;fixedSize=1;" parent="b9gszXVMno1NXKM0P90B-12" vertex="1">
          <mxGeometry x="89" y="80" width="84" height="70" as="geometry" />
        </mxCell>
        <mxCell id="b9gszXVMno1NXKM0P90B-31" value="Service mesh" style="text;html=1;strokeColor=none;fillColor=none;align=center;verticalAlign=middle;whiteSpace=wrap;rounded=0;" parent="b9gszXVMno1NXKM0P90B-12" vertex="1">
          <mxGeometry x="73" y="50" width="60" height="30" as="geometry" />
        </mxCell>
        <mxCell id="gPe0-I8KuVqpto5hZWO--12" value="&lt;b&gt;E2 - MongoDB&lt;/b&gt;" style="shape=cylinder3;whiteSpace=wrap;html=1;boundedLbl=1;backgroundOutline=1;size=15;" vertex="1" parent="b9gszXVMno1NXKM0P90B-12">
          <mxGeometry x="5" y="116" width="68" height="60" as="geometry" />
        </mxCell>
        <mxCell id="b9gszXVMno1NXKM0P90B-13" value="" style="edgeStyle=orthogonalEdgeStyle;rounded=0;orthogonalLoop=1;jettySize=auto;html=1;" parent="1" target="b9gszXVMno1NXKM0P90B-18" edge="1">
          <mxGeometry relative="1" as="geometry">
            <mxPoint x="520" y="440" as="sourcePoint" />
          </mxGeometry>
        </mxCell>
        <mxCell id="b9gszXVMno1NXKM0P90B-14" value="E3 - Customer Portal" style="swimlane;whiteSpace=wrap;html=1;" parent="1" vertex="1">
          <mxGeometry x="430" y="258" width="170" height="182" as="geometry" />
        </mxCell>
        <mxCell id="gPe0-I8KuVqpto5hZWO--13" value="&lt;b&gt;E3 - MongoDB&lt;/b&gt;" style="shape=cylinder3;whiteSpace=wrap;html=1;boundedLbl=1;backgroundOutline=1;size=15;" vertex="1" parent="b9gszXVMno1NXKM0P90B-14">
          <mxGeometry x="5.5" y="118" width="68" height="60" as="geometry" />
        </mxCell>
        <mxCell id="b9gszXVMno1NXKM0P90B-15" value="&lt;b&gt;&lt;font style=&quot;font-size: 18px;&quot;&gt;Event Mesh Orchestration&lt;/font&gt;&lt;/b&gt;" style="rounded=1;whiteSpace=wrap;html=1;" parent="1" vertex="1">
          <mxGeometry x="-20" y="580" width="1060" height="50" as="geometry" />
        </mxCell>
        <mxCell id="b9gszXVMno1NXKM0P90B-16" value="&lt;b&gt;&lt;font style=&quot;font-size: 18px;&quot;&gt;Event Broker&lt;/font&gt;&lt;/b&gt;" style="rounded=0;whiteSpace=wrap;html=1;" parent="1" vertex="1">
          <mxGeometry x="32" y="479" width="120" height="60" as="geometry" />
        </mxCell>
        <mxCell id="b9gszXVMno1NXKM0P90B-17" value="&lt;b&gt;&lt;font style=&quot;font-size: 18px;&quot;&gt;Event Broker&lt;/font&gt;&lt;/b&gt;" style="rounded=0;whiteSpace=wrap;html=1;" parent="1" vertex="1">
          <mxGeometry x="237" y="479" width="120" height="60" as="geometry" />
        </mxCell>
        <mxCell id="b9gszXVMno1NXKM0P90B-18" value="&lt;b&gt;&lt;font style=&quot;font-size: 18px;&quot;&gt;Event Broker&lt;/font&gt;&lt;/b&gt;" style="rounded=0;whiteSpace=wrap;html=1;" parent="1" vertex="1">
          <mxGeometry x="470" y="480" width="119" height="50" as="geometry" />
        </mxCell>
        <mxCell id="b9gszXVMno1NXKM0P90B-19" value="" style="endArrow=classic;html=1;rounded=0;entryX=0.187;entryY=-0.037;entryDx=0;entryDy=0;entryPerimeter=0;" parent="1" target="b9gszXVMno1NXKM0P90B-1" edge="1">
          <mxGeometry width="50" height="50" relative="1" as="geometry">
            <mxPoint x="180" y="120" as="sourcePoint" />
            <mxPoint x="170" y="180.77999999999997" as="targetPoint" />
          </mxGeometry>
        </mxCell>
        <mxCell id="b9gszXVMno1NXKM0P90B-20" value="" style="endArrow=classic;html=1;rounded=0;exitX=0.5;exitY=1;exitDx=0;exitDy=0;entryX=0.138;entryY=-0.043;entryDx=0;entryDy=0;entryPerimeter=0;" parent="1" edge="1">
          <mxGeometry width="50" height="50" relative="1" as="geometry">
            <mxPoint x="483.33000000000004" y="120" as="sourcePoint" />
            <mxPoint x="484.33000000000004" y="167" as="targetPoint" />
          </mxGeometry>
        </mxCell>
        <mxCell id="b9gszXVMno1NXKM0P90B-21" value="" style="endArrow=classic;html=1;rounded=0;exitX=0.5;exitY=1;exitDx=0;exitDy=0;entryX=0.138;entryY=-0.043;entryDx=0;entryDy=0;entryPerimeter=0;" parent="1" edge="1">
          <mxGeometry width="50" height="50" relative="1" as="geometry">
            <mxPoint x="809.3299999999999" y="123" as="sourcePoint" />
            <mxPoint x="810.3299999999999" y="170" as="targetPoint" />
          </mxGeometry>
        </mxCell>
        <mxCell id="b9gszXVMno1NXKM0P90B-22" value="" style="endArrow=classic;html=1;rounded=0;entryX=0.138;entryY=-0.043;entryDx=0;entryDy=0;entryPerimeter=0;" parent="1" edge="1">
          <mxGeometry width="50" height="50" relative="1" as="geometry">
            <mxPoint x="97" y="230" as="sourcePoint" />
            <mxPoint x="97.33000000000001" y="267" as="targetPoint" />
          </mxGeometry>
        </mxCell>
        <mxCell id="b9gszXVMno1NXKM0P90B-23" value="" style="endArrow=classic;html=1;rounded=0;" parent="1" edge="1">
          <mxGeometry width="50" height="50" relative="1" as="geometry">
            <mxPoint x="306.33000000000004" y="230" as="sourcePoint" />
            <mxPoint x="307" y="260" as="targetPoint" />
          </mxGeometry>
        </mxCell>
        <mxCell id="b9gszXVMno1NXKM0P90B-24" value="" style="endArrow=classic;html=1;rounded=0;entryX=0.138;entryY=-0.043;entryDx=0;entryDy=0;entryPerimeter=0;" parent="1" edge="1">
          <mxGeometry width="50" height="50" relative="1" as="geometry">
            <mxPoint x="526.3299999999999" y="230" as="sourcePoint" />
            <mxPoint x="526.66" y="267" as="targetPoint" />
          </mxGeometry>
        </mxCell>
        <mxCell id="b9gszXVMno1NXKM0P90B-25" value="" style="endArrow=classic;html=1;rounded=0;entryX=0.178;entryY=-0.016;entryDx=0;entryDy=0;entryPerimeter=0;" parent="1" edge="1">
          <mxGeometry width="50" height="50" relative="1" as="geometry">
            <mxPoint x="220" y="170" as="sourcePoint" />
            <mxPoint x="220" y="120" as="targetPoint" />
          </mxGeometry>
        </mxCell>
        <mxCell id="b9gszXVMno1NXKM0P90B-26" value="" style="endArrow=classic;html=1;rounded=0;entryX=0.178;entryY=-0.016;entryDx=0;entryDy=0;entryPerimeter=0;exitX=0.17;exitY=-0.03;exitDx=0;exitDy=0;exitPerimeter=0;" parent="1" edge="1">
          <mxGeometry width="50" height="50" relative="1" as="geometry">
            <mxPoint x="503.33000000000004" y="170" as="sourcePoint" />
            <mxPoint x="503.33000000000004" y="122" as="targetPoint" />
          </mxGeometry>
        </mxCell>
        <mxCell id="b9gszXVMno1NXKM0P90B-27" value="" style="endArrow=classic;html=1;rounded=0;entryX=0.178;entryY=-0.016;entryDx=0;entryDy=0;entryPerimeter=0;exitX=0.17;exitY=-0.03;exitDx=0;exitDy=0;exitPerimeter=0;" parent="1" edge="1">
          <mxGeometry width="50" height="50" relative="1" as="geometry">
            <mxPoint x="830" y="170" as="sourcePoint" />
            <mxPoint x="830" y="122" as="targetPoint" />
          </mxGeometry>
        </mxCell>
        <mxCell id="b9gszXVMno1NXKM0P90B-28" value="&lt;b&gt;Fleet Overview&lt;/b&gt;" style="shape=hexagon;perimeter=hexagonPerimeter2;whiteSpace=wrap;html=1;fixedSize=1;" parent="1" vertex="1">
          <mxGeometry x="219" y="290" width="81" height="80" as="geometry" />
        </mxCell>
        <mxCell id="b9gszXVMno1NXKM0P90B-30" value="" style="endArrow=classic;startArrow=classic;html=1;rounded=0;exitX=1;exitY=0.5;exitDx=0;exitDy=0;entryX=0;entryY=0.5;entryDx=0;entryDy=0;" parent="1" source="b9gszXVMno1NXKM0P90B-28" target="b9gszXVMno1NXKM0P90B-29" edge="1">
          <mxGeometry width="50" height="50" relative="1" as="geometry">
            <mxPoint x="286" y="310" as="sourcePoint" />
            <mxPoint x="296" y="350" as="targetPoint" />
          </mxGeometry>
        </mxCell>
        <mxCell id="b9gszXVMno1NXKM0P90B-32" value="&lt;b&gt;Fleet Overview&lt;/b&gt;" style="shape=hexagon;perimeter=hexagonPerimeter2;whiteSpace=wrap;html=1;fixedSize=1;" parent="1" vertex="1">
          <mxGeometry x="430" y="290" width="79" height="60" as="geometry" />
        </mxCell>
        <mxCell id="b9gszXVMno1NXKM0P90B-33" value="&lt;b&gt;Vehicle Specs&lt;/b&gt;" style="shape=hexagon;perimeter=hexagonPerimeter2;whiteSpace=wrap;html=1;fixedSize=1;" parent="1" vertex="1">
          <mxGeometry x="529" y="340" width="71" height="70" as="geometry" />
        </mxCell>
        <mxCell id="b9gszXVMno1NXKM0P90B-34" value="" style="endArrow=classic;startArrow=classic;html=1;rounded=0;exitX=1;exitY=0.5;exitDx=0;exitDy=0;entryX=0;entryY=0.5;entryDx=0;entryDy=0;" parent="1" source="b9gszXVMno1NXKM0P90B-32" target="b9gszXVMno1NXKM0P90B-33" edge="1">
          <mxGeometry width="50" height="50" relative="1" as="geometry">
            <mxPoint x="519" y="310" as="sourcePoint" />
            <mxPoint x="529" y="350" as="targetPoint" />
          </mxGeometry>
        </mxCell>
        <mxCell id="b9gszXVMno1NXKM0P90B-35" value="Service mesh" style="text;html=1;strokeColor=none;fillColor=none;align=center;verticalAlign=middle;whiteSpace=wrap;rounded=0;" parent="1" vertex="1">
          <mxGeometry x="509" y="310" width="60" height="30" as="geometry" />
        </mxCell>
        <mxCell id="b9gszXVMno1NXKM0P90B-36" value="" style="endArrow=classic;startArrow=classic;html=1;rounded=0;exitX=0.803;exitY=0.019;exitDx=0;exitDy=0;exitPerimeter=0;" parent="1" edge="1">
          <mxGeometry width="50" height="50" relative="1" as="geometry">
            <mxPoint x="524.8600000000001" y="581.1400000000001" as="sourcePoint" />
            <mxPoint x="520" y="530" as="targetPoint" />
          </mxGeometry>
        </mxCell>
        <mxCell id="b9gszXVMno1NXKM0P90B-37" value="" style="endArrow=classic;startArrow=classic;html=1;rounded=0;exitX=0.803;exitY=0.019;exitDx=0;exitDy=0;exitPerimeter=0;" parent="1" edge="1">
          <mxGeometry width="50" height="50" relative="1" as="geometry">
            <mxPoint x="293.5" y="580" as="sourcePoint" />
            <mxPoint x="294" y="540" as="targetPoint" />
          </mxGeometry>
        </mxCell>
        <mxCell id="b9gszXVMno1NXKM0P90B-38" value="" style="endArrow=classic;startArrow=classic;html=1;rounded=0;exitX=0.803;exitY=0.019;exitDx=0;exitDy=0;exitPerimeter=0;" parent="1" edge="1">
          <mxGeometry width="50" height="50" relative="1" as="geometry">
            <mxPoint x="93.5" y="580" as="sourcePoint" />
            <mxPoint x="94" y="540" as="targetPoint" />
          </mxGeometry>
        </mxCell>
        <mxCell id="b9gszXVMno1NXKM0P90B-39" value="" style="endArrow=classic;html=1;rounded=0;entryX=0.178;entryY=-0.016;entryDx=0;entryDy=0;entryPerimeter=0;" parent="1" edge="1">
          <mxGeometry width="50" height="50" relative="1" as="geometry">
            <mxPoint x="117" y="259" as="sourcePoint" />
            <mxPoint x="117" y="229" as="targetPoint" />
          </mxGeometry>
        </mxCell>
        <mxCell id="b9gszXVMno1NXKM0P90B-40" value="" style="endArrow=classic;html=1;rounded=0;entryX=0.178;entryY=-0.016;entryDx=0;entryDy=0;entryPerimeter=0;" parent="1" edge="1">
          <mxGeometry width="50" height="50" relative="1" as="geometry">
            <mxPoint x="322" y="258" as="sourcePoint" />
            <mxPoint x="322" y="228" as="targetPoint" />
          </mxGeometry>
        </mxCell>
        <mxCell id="b9gszXVMno1NXKM0P90B-41" value="" style="endArrow=classic;html=1;rounded=0;entryX=0.178;entryY=-0.016;entryDx=0;entryDy=0;entryPerimeter=0;" parent="1" edge="1">
          <mxGeometry width="50" height="50" relative="1" as="geometry">
            <mxPoint x="538.33" y="260" as="sourcePoint" />
            <mxPoint x="538.33" y="230" as="targetPoint" />
          </mxGeometry>
        </mxCell>
        <mxCell id="b9gszXVMno1NXKM0P90B-42" value="" style="endArrow=classic;html=1;rounded=0;" parent="1" edge="1">
          <mxGeometry width="50" height="50" relative="1" as="geometry">
            <mxPoint x="107" y="478" as="sourcePoint" />
            <mxPoint x="110" y="440" as="targetPoint" />
          </mxGeometry>
        </mxCell>
        <mxCell id="b9gszXVMno1NXKM0P90B-43" value="" style="endArrow=classic;html=1;rounded=0;entryX=0.5;entryY=1;entryDx=0;entryDy=0;" parent="1" edge="1" target="b9gszXVMno1NXKM0P90B-12">
          <mxGeometry width="50" height="50" relative="1" as="geometry">
            <mxPoint x="307" y="479" as="sourcePoint" />
            <mxPoint x="307" y="439" as="targetPoint" />
          </mxGeometry>
        </mxCell>
        <mxCell id="b9gszXVMno1NXKM0P90B-44" value="" style="endArrow=classic;html=1;rounded=0;exitX=0.582;exitY=0.031;exitDx=0;exitDy=0;exitPerimeter=0;" parent="1" edge="1" source="b9gszXVMno1NXKM0P90B-18">
          <mxGeometry width="50" height="50" relative="1" as="geometry">
            <mxPoint x="538.33" y="469" as="sourcePoint" />
            <mxPoint x="538" y="440" as="targetPoint" />
          </mxGeometry>
        </mxCell>
        <mxCell id="b9gszXVMno1NXKM0P90B-58" value="" style="edgeStyle=orthogonalEdgeStyle;rounded=0;orthogonalLoop=1;jettySize=auto;html=1;" parent="1" target="b9gszXVMno1NXKM0P90B-59" edge="1">
          <mxGeometry relative="1" as="geometry">
            <mxPoint x="692" y="440" as="sourcePoint" />
          </mxGeometry>
        </mxCell>
        <mxCell id="b9gszXVMno1NXKM0P90B-59" value="&lt;b&gt;&lt;font style=&quot;font-size: 18px;&quot;&gt;Event Broker&lt;/font&gt;&lt;/b&gt;" style="rounded=0;whiteSpace=wrap;html=1;" parent="1" vertex="1">
          <mxGeometry x="632" y="471" width="120" height="60" as="geometry" />
        </mxCell>
        <mxCell id="b9gszXVMno1NXKM0P90B-60" value="" style="endArrow=classic;html=1;rounded=0;entryX=0.138;entryY=-0.043;entryDx=0;entryDy=0;entryPerimeter=0;" parent="1" edge="1">
          <mxGeometry width="50" height="50" relative="1" as="geometry">
            <mxPoint x="696.3299999999999" y="230" as="sourcePoint" />
            <mxPoint x="696.66" y="267" as="targetPoint" />
          </mxGeometry>
        </mxCell>
        <mxCell id="b9gszXVMno1NXKM0P90B-61" value="&lt;b&gt;Vehicle Inventory&lt;/b&gt;" style="shape=hexagon;perimeter=hexagonPerimeter2;whiteSpace=wrap;html=1;fixedSize=1;" parent="1" vertex="1">
          <mxGeometry x="619" y="290" width="71" height="80" as="geometry" />
        </mxCell>
        <mxCell id="b9gszXVMno1NXKM0P90B-62" value="&lt;b&gt;Online Payments&lt;/b&gt;" style="shape=hexagon;perimeter=hexagonPerimeter2;whiteSpace=wrap;html=1;fixedSize=1;" parent="1" vertex="1">
          <mxGeometry x="712" y="340" width="71" height="80" as="geometry" />
        </mxCell>
        <mxCell id="b9gszXVMno1NXKM0P90B-63" value="" style="endArrow=classic;startArrow=classic;html=1;rounded=0;exitX=1;exitY=0.5;exitDx=0;exitDy=0;entryX=0;entryY=0.5;entryDx=0;entryDy=0;" parent="1" source="b9gszXVMno1NXKM0P90B-61" target="b9gszXVMno1NXKM0P90B-62" edge="1">
          <mxGeometry width="50" height="50" relative="1" as="geometry">
            <mxPoint x="689" y="310" as="sourcePoint" />
            <mxPoint x="699" y="350" as="targetPoint" />
          </mxGeometry>
        </mxCell>
        <mxCell id="b9gszXVMno1NXKM0P90B-64" value="Service mesh" style="text;html=1;strokeColor=none;fillColor=none;align=center;verticalAlign=middle;whiteSpace=wrap;rounded=0;" parent="1" vertex="1">
          <mxGeometry x="679" y="310" width="60" height="30" as="geometry" />
        </mxCell>
        <mxCell id="b9gszXVMno1NXKM0P90B-65" value="" style="endArrow=classic;startArrow=classic;html=1;rounded=0;exitX=0.803;exitY=0.019;exitDx=0;exitDy=0;exitPerimeter=0;entryX=0.5;entryY=1;entryDx=0;entryDy=0;" parent="1" target="b9gszXVMno1NXKM0P90B-59" edge="1">
          <mxGeometry width="50" height="50" relative="1" as="geometry">
            <mxPoint x="694.8600000000001" y="581.1400000000001" as="sourcePoint" />
            <mxPoint x="695" y="540" as="targetPoint" />
          </mxGeometry>
        </mxCell>
        <mxCell id="b9gszXVMno1NXKM0P90B-66" value="" style="endArrow=classic;html=1;rounded=0;entryX=0.178;entryY=-0.016;entryDx=0;entryDy=0;entryPerimeter=0;" parent="1" edge="1">
          <mxGeometry width="50" height="50" relative="1" as="geometry">
            <mxPoint x="708.33" y="260" as="sourcePoint" />
            <mxPoint x="708.33" y="230" as="targetPoint" />
          </mxGeometry>
        </mxCell>
        <mxCell id="b9gszXVMno1NXKM0P90B-67" value="" style="endArrow=classic;html=1;rounded=0;" parent="1" edge="1">
          <mxGeometry width="50" height="50" relative="1" as="geometry">
            <mxPoint x="708.33" y="473" as="sourcePoint" />
            <mxPoint x="708.33" y="433" as="targetPoint" />
          </mxGeometry>
        </mxCell>
        <mxCell id="b9gszXVMno1NXKM0P90B-68" value="E4 - Dealer Portal**" style="swimlane;whiteSpace=wrap;html=1;" parent="1" vertex="1">
          <mxGeometry x="619" y="259" width="171" height="181" as="geometry" />
        </mxCell>
        <mxCell id="gPe0-I8KuVqpto5hZWO--14" value="&lt;b&gt;E4 - MongoDB&lt;/b&gt;" style="shape=cylinder3;whiteSpace=wrap;html=1;boundedLbl=1;backgroundOutline=1;size=15;" vertex="1" parent="b9gszXVMno1NXKM0P90B-68">
          <mxGeometry x="3" y="116" width="68" height="60" as="geometry" />
        </mxCell>
        <mxCell id="b9gszXVMno1NXKM0P90B-73" value="" style="edgeStyle=orthogonalEdgeStyle;rounded=0;orthogonalLoop=1;jettySize=auto;html=1;entryX=0.405;entryY=-0.09;entryDx=0;entryDy=0;entryPerimeter=0;" parent="1" target="b9gszXVMno1NXKM0P90B-74" edge="1">
          <mxGeometry relative="1" as="geometry">
            <mxPoint x="934" y="440" as="sourcePoint" />
            <mxPoint x="920.5" y="470" as="targetPoint" />
          </mxGeometry>
        </mxCell>
        <mxCell id="b9gszXVMno1NXKM0P90B-74" value="&lt;b&gt;&lt;font style=&quot;font-size: 18px;&quot;&gt;Event Broker&lt;/font&gt;&lt;/b&gt;" style="rounded=0;whiteSpace=wrap;html=1;" parent="1" vertex="1">
          <mxGeometry x="870" y="480" width="130" height="50" as="geometry" />
        </mxCell>
        <mxCell id="b9gszXVMno1NXKM0P90B-75" value="&lt;b&gt;Stake&lt;br&gt;holders&lt;/b&gt;" style="shape=hexagon;perimeter=hexagonPerimeter2;whiteSpace=wrap;html=1;fixedSize=1;" parent="1" vertex="1">
          <mxGeometry x="850" y="293" width="70" height="77" as="geometry" />
        </mxCell>
        <mxCell id="b9gszXVMno1NXKM0P90B-76" value="&lt;b&gt;Collaborative Design&lt;/b&gt;" style="shape=hexagon;perimeter=hexagonPerimeter2;whiteSpace=wrap;html=1;fixedSize=1;" parent="1" vertex="1">
          <mxGeometry x="937" y="343" width="83" height="87" as="geometry" />
        </mxCell>
        <mxCell id="b9gszXVMno1NXKM0P90B-77" value="" style="endArrow=classic;startArrow=classic;html=1;rounded=0;entryX=0;entryY=0.5;entryDx=0;entryDy=0;" parent="1" target="b9gszXVMno1NXKM0P90B-76" edge="1">
          <mxGeometry width="50" height="50" relative="1" as="geometry">
            <mxPoint x="920" y="318" as="sourcePoint" />
            <mxPoint x="964" y="353" as="targetPoint" />
          </mxGeometry>
        </mxCell>
        <mxCell id="b9gszXVMno1NXKM0P90B-79" value="" style="endArrow=classic;html=1;rounded=0;exitX=0.606;exitY=-0.056;exitDx=0;exitDy=0;exitPerimeter=0;" parent="1" edge="1" source="b9gszXVMno1NXKM0P90B-74">
          <mxGeometry width="50" height="50" relative="1" as="geometry">
            <mxPoint x="950.33" y="471" as="sourcePoint" />
            <mxPoint x="950.33" y="431" as="targetPoint" />
          </mxGeometry>
        </mxCell>
        <mxCell id="b9gszXVMno1NXKM0P90B-80" value="E5 - Third Party**" style="swimlane;whiteSpace=wrap;html=1;" parent="1" vertex="1">
          <mxGeometry x="840" y="262" width="180" height="178" as="geometry" />
        </mxCell>
        <mxCell id="b9gszXVMno1NXKM0P90B-78" value="Service mesh" style="text;html=1;strokeColor=none;fillColor=none;align=center;verticalAlign=middle;whiteSpace=wrap;rounded=0;" parent="b9gszXVMno1NXKM0P90B-80" vertex="1">
          <mxGeometry x="80" y="53" width="60" height="30" as="geometry" />
        </mxCell>
        <mxCell id="gPe0-I8KuVqpto5hZWO--15" value="&lt;b&gt;E5 - MongoDB&lt;/b&gt;" style="shape=cylinder3;whiteSpace=wrap;html=1;boundedLbl=1;backgroundOutline=1;size=15;" vertex="1" parent="b9gszXVMno1NXKM0P90B-80">
          <mxGeometry x="10" y="114" width="68" height="60" as="geometry" />
        </mxCell>
        <mxCell id="b9gszXVMno1NXKM0P90B-82" value="" style="endArrow=classic;html=1;rounded=0;entryX=0.178;entryY=-0.016;entryDx=0;entryDy=0;entryPerimeter=0;" parent="1" edge="1">
          <mxGeometry width="50" height="50" relative="1" as="geometry">
            <mxPoint x="972.33" y="262" as="sourcePoint" />
            <mxPoint x="972.33" y="232" as="targetPoint" />
          </mxGeometry>
        </mxCell>
        <mxCell id="gPe0-I8KuVqpto5hZWO--1" value="" style="endArrow=classic;startArrow=classic;html=1;rounded=0;exitX=0.803;exitY=0.019;exitDx=0;exitDy=0;exitPerimeter=0;" edge="1" parent="1">
          <mxGeometry width="50" height="50" relative="1" as="geometry">
            <mxPoint x="935.4300000000001" y="580.0000000000001" as="sourcePoint" />
            <mxPoint x="935" y="530" as="targetPoint" />
          </mxGeometry>
        </mxCell>
        <mxCell id="gPe0-I8KuVqpto5hZWO--9" value="" style="endArrow=none;dashed=1;html=1;dashPattern=1 3;strokeWidth=2;rounded=0;entryX=0;entryY=0.5;entryDx=0;entryDy=0;exitX=0.849;exitY=0.112;exitDx=0;exitDy=0;exitPerimeter=0;" edge="1" parent="1" source="b9gszXVMno1NXKM0P90B-28" target="b9gszXVMno1NXKM0P90B-32">
          <mxGeometry width="50" height="50" relative="1" as="geometry">
            <mxPoint x="510" y="390" as="sourcePoint" />
            <mxPoint x="560" y="340" as="targetPoint" />
          </mxGeometry>
        </mxCell>
      </root>
    </mxGraphModel>
  </diagram>
</mxfile>
